<svg width="138" height="48" viewBox="0 0 138 48" fill="none" xmlns="http://www.w3.org/2000/svg">
<g opacity="0.7">
<path opacity="0.7" d="M103.328 30.7904L125.612 43.3065L126.541 42.7848L104.257 30.2688" fill="#C81E0F"/>
<path opacity="0.7" d="M100.543 32.3546L122.827 44.8706L123.756 44.349L101.471 31.8329" fill="#C81E0F"/>
<path opacity="0.7" d="M97.7573 33.9199L120.041 46.436L120.969 45.9144L98.6852 33.3983" fill="#C81E0F"/>
<path opacity="0.7" d="M94.9719 35.4841L117.256 48.0001L118.185 47.4785L95.9005 34.9625" fill="#C81E0F"/>
<path opacity="0.7" d="M114.469 24.5326L136.754 37.0487L137.682 36.527L115.398 24.011" fill="#C81E0F"/>
<path opacity="0.7" d="M111.684 26.0968L133.967 38.6128L134.896 38.0912L112.613 25.5751" fill="#C81E0F"/>
<path opacity="0.7" d="M108.899 27.6615L131.183 40.1776L132.111 39.6559L109.827 27.1399" fill="#C81E0F"/>
<path opacity="0.7" d="M106.113 29.2257L128.397 41.7417L129.326 41.2201L107.042 28.704" fill="#C81E0F"/>
</g>
<g opacity="0.6">
<path opacity="0.6" d="M136.755 13.038V37.0491L137.684 36.5275V12.5164" fill="#C81E0F"/>
<path opacity="0.6" d="M133.97 14.6021V38.6133L134.898 38.0917V14.0805" fill="#C81E0F"/>
<path opacity="0.6" d="M131.184 16.1669V40.1781L132.113 39.6564V15.6453" fill="#C81E0F"/>
<path opacity="0.6" d="M128.399 17.731V41.7422L129.328 41.2206V17.2094" fill="#C81E0F"/>
<path opacity="0.6" d="M125.614 19.2958L125.615 43.307L126.543 42.7853L126.542 18.7742" fill="#C81E0F"/>
<path opacity="0.6" d="M122.828 20.8599V44.8711L123.757 44.3495V20.3383" fill="#C81E0F"/>
<path opacity="0.6" d="M120.043 22.4253V46.4365L120.972 45.9149V21.9037" fill="#C81E0F"/>
<path opacity="0.6" d="M117.258 23.9889V48L118.186 47.4784V23.4672" fill="#C81E0F"/>
</g>
<g opacity="0.8">
<path opacity="0.8" d="M103.328 6.77944L125.612 19.2955L126.54 18.7739L104.257 6.25781" fill="#C81E0F"/>
<path opacity="0.8" d="M100.543 8.34359L122.827 20.8596L123.756 20.338L101.471 7.82196" fill="#C81E0F"/>
<path opacity="0.8" d="M97.7573 9.90896L120.042 22.425L120.97 21.9034L98.6859 9.38733" fill="#C81E0F"/>
<path opacity="0.8" d="M94.9719 11.4725L117.256 23.9885L118.185 23.4669L95.9005 10.9509" fill="#C81E0F"/>
<path opacity="0.8" d="M114.469 0.521626L136.754 13.0377L137.682 12.516L115.398 0" fill="#C81E0F"/>
<path opacity="0.8" d="M111.684 2.08577L133.967 14.6018L134.896 14.0802L112.612 1.56415" fill="#C81E0F"/>
<path opacity="0.8" d="M108.899 3.65053L131.183 16.1666L132.111 15.6449L109.827 3.12891" fill="#C81E0F"/>
<path opacity="0.8" d="M106.113 5.21455L128.397 17.7306L129.326 17.209L107.042 4.69366" fill="#C81E0F"/>
</g>
<g opacity="0.7">
<path opacity="0.7" d="M68.8408 1.04325L46.5566 13.5593V12.516L68.8408 0" fill="#EA5A00"/>
<path opacity="0.7" d="M68.8408 4.18327L46.5566 16.6986V15.6561L68.8408 3.14001" fill="#EA5A00"/>
<path opacity="0.7" d="M68.8408 7.31217L46.5566 19.8275V18.785L68.8408 6.26892" fill="#EA5A00"/>
<path opacity="0.7" d="M68.8408 10.4528L46.5566 22.9681V21.9256L68.8408 9.40955" fill="#EA5A00"/>
<path opacity="0.7" d="M68.8408 13.5595L46.5566 26.0748V25.0323L68.8408 12.5162" fill="#EA5A00"/>
<path opacity="0.7" d="M68.8408 16.6988L46.5566 29.2148V28.1723L68.8408 15.6562" fill="#EA5A00"/>
<path opacity="0.7" d="M68.8408 19.8277L46.5566 32.3437V31.3012L68.8408 18.7852" fill="#EA5A00"/>
<path opacity="0.7" d="M68.8408 22.9677L46.5566 35.4837V34.4412L68.8408 21.9252" fill="#EA5A00"/>
</g>
<g opacity="0.6">
<path opacity="0.6" d="M68.8425 1.04325L91.1267 13.5593V12.516L68.8425 0" fill="#EA5A00"/>
<path opacity="0.6" d="M68.8425 4.18327L91.1267 16.6986V15.6561L68.8425 3.14001" fill="#EA5A00"/>
<path opacity="0.6" d="M68.8425 7.31217L91.1267 19.8275V18.785L68.8425 6.26892" fill="#EA5A00"/>
<path opacity="0.6" d="M68.8425 10.4528L91.1267 22.9681V21.9256L68.8425 9.40955" fill="#EA5A00"/>
<path opacity="0.6" d="M68.8425 13.5595L91.1267 26.0748V25.0323L68.8425 12.5162" fill="#EA5A00"/>
<path opacity="0.6" d="M68.8425 16.6988L91.1267 29.2148V28.1723L68.8425 15.6562" fill="#EA5A00"/>
<path opacity="0.6" d="M68.8425 19.8277L91.1267 32.3437V31.3012L68.8425 18.7852" fill="#EA5A00"/>
<path opacity="0.6" d="M68.8425 22.9677L91.1267 35.4837V34.4412L68.8425 21.9252" fill="#EA5A00"/>
</g>
<g opacity="0.8">
<path opacity="0.8" d="M91.1267 13.5596L68.8425 26.0749V25.0324L91.1267 12.5164" fill="#EA5A00"/>
<path opacity="0.8" d="M91.1267 16.6989L68.8425 29.2149V28.1724L91.1267 15.6564" fill="#EA5A00"/>
<path opacity="0.8" d="M91.1267 19.8278L68.8425 32.3438V31.3013L91.1267 18.7853" fill="#EA5A00"/>
<path opacity="0.8" d="M91.1267 22.9684L68.8425 35.4845V34.4419L91.1267 21.9259" fill="#EA5A00"/>
<path opacity="0.8" d="M91.1267 26.0751L68.8425 38.5911V37.5486L91.1267 25.0326" fill="#EA5A00"/>
<path opacity="0.8" d="M91.1267 29.2151L68.8425 41.7312V40.6886L91.1267 28.1726" fill="#EA5A00"/>
<path opacity="0.8" d="M91.1267 32.344L68.8425 44.8601V43.8176L91.1267 31.3015" fill="#EA5A00"/>
<path opacity="0.8" d="M91.1267 35.484L68.8425 48.0001V46.9568L91.1267 34.4415" fill="#EA5A00"/>
</g>
<g opacity="0.8">
<path opacity="0.8" d="M34.3542 30.7904L12.07 43.3065L11.1414 42.7848L33.4255 30.2688" fill="#B43092"/>
<path opacity="0.8" d="M37.1395 32.3546L14.8554 44.8706L13.9268 44.349L36.2109 31.8329" fill="#B43092"/>
<path opacity="0.8" d="M39.9249 33.9199L17.6408 46.436L16.7122 45.9144L38.9963 33.3983" fill="#B43092"/>
<path opacity="0.8" d="M42.7104 35.4841L20.4262 48.0001L19.4976 47.4785L41.7818 34.9625" fill="#B43092"/>
<path opacity="0.8" d="M23.2128 24.5327L0.928604 37.0488L0 36.5272L22.2842 24.0111" fill="#B43092"/>
<path opacity="0.8" d="M25.9974 26.0968L3.71324 38.6128L2.7854 38.0912L25.0696 25.5751" fill="#B43092"/>
<path opacity="0.8" d="M28.7836 27.6615L6.4994 40.1776L5.5708 39.6559L27.855 27.1399" fill="#B43092"/>
<path opacity="0.8" d="M31.569 29.2257L9.2848 41.7417L8.3562 41.2201L30.6404 28.704" fill="#B43092"/>
</g>
<g opacity="0.6">
<path opacity="0.6" d="M0.928604 13.0379V37.049L0 36.5274V12.5162" fill="#B43092"/>
<path opacity="0.6" d="M3.714 14.6021L3.71324 38.6133L2.7854 38.0917V14.0805" fill="#B43092"/>
<path opacity="0.6" d="M6.4994 16.1669V40.1781L5.5708 39.6564V15.6453" fill="#B43092"/>
<path opacity="0.6" d="M9.28481 17.731V41.7422L8.3562 41.2206V17.2094" fill="#B43092"/>
<path opacity="0.6" d="M12.0707 19.2958L12.07 43.307L11.1414 42.7853L11.1421 18.7742" fill="#B43092"/>
<path opacity="0.6" d="M14.8554 20.8599V44.8711L13.9268 44.3495V20.3383" fill="#B43092"/>
<path opacity="0.6" d="M17.6408 22.4253V46.4365L16.7122 45.9149V21.9037" fill="#B43092"/>
<path opacity="0.6" d="M20.4262 23.9889V48L19.4976 47.4784V23.4672" fill="#B43092"/>
</g>
<g opacity="0.7">
<path opacity="0.7" d="M34.3534 6.77944L12.07 19.2955L11.1414 18.7739L33.4255 6.25781" fill="#B43092"/>
<path opacity="0.7" d="M37.1395 8.34359L14.8554 20.8596L13.9268 20.338L36.2109 7.82196" fill="#B43092"/>
<path opacity="0.7" d="M39.9249 9.90896L17.6408 22.425L16.7122 21.9034L38.9963 9.38733" fill="#B43092"/>
<path opacity="0.7" d="M42.7104 11.4725L20.4262 23.9885L19.4976 23.4669L41.7818 10.9509" fill="#B43092"/>
<path opacity="0.7" d="M23.2128 0.521626L0.928604 13.0377L0 12.516L22.2842 0" fill="#B43092"/>
<path opacity="0.7" d="M25.9974 2.08577L3.714 14.6018L2.7854 14.0802L25.0696 1.56415" fill="#B43092"/>
<path opacity="0.7" d="M28.7836 3.65053L6.4994 16.1666L5.5708 15.6449L27.855 3.12891" fill="#B43092"/>
<path opacity="0.7" d="M31.569 5.21455L9.2848 17.7306L8.3562 17.209L30.6404 4.69366" fill="#B43092"/>
</g>
</svg>
